<?xml version="1.0" encoding="utf-8"?>
<!-- Generator: Adobe Illustrator 26.5.0, SVG Export Plug-In . SVG Version: 6.00 Build 0)  -->
<svg version="1.1" id="Layer_1" xmlns="http://www.w3.org/2000/svg" xmlns:xlink="http://www.w3.org/1999/xlink" x="0px" y="0px"
	 viewBox="0 0 1080 1080" style="enable-background:new 0 0 1080 1080;" xml:space="preserve">
<style type="text/css">
	.st0{display:none;}
	.st1{display:inline;}
	.st2{display:inline;fill:#FFFFFF;}
</style>
<g class="st0">
	<path class="st1" d="M267.3,427.9V403h-86.9V370l83.6-89.7h52v78.1h18.5V403H316v24.9H267.3z M267.3,358.3V339l-18.8,19.3H267.3z"
		/>
	<path class="st2" d="M311,285.2v78.1h18.5V398H311v24.9h-38.6V398h-86.9v-26.1l80.7-86.7H311 M239.3,363.3h33.1v-33.9h-2.7
		l-30.4,31.2V363.3 M321,275.2h-10h-44.8h-4.4l-3,3.2l-80.7,86.7l-2.7,2.9v3.9V398v10h10h76.9v14.9v10h10H311h10v-10V408h8.5h10v-10
		v-34.7v-10h-10H321v-68.1V275.2L321,275.2z M260.4,353.3l2-2v2H260.4L260.4,353.3z"/>
</g>
<g>
	<g>
		<path d="M300,319.6c-12.2-24.9-22.9-41-56.5-49.7V265c62.4-7.8,88.2-38.5,88.2-90.2c0-63.8-45.3-99.9-131.6-99.9H9.5v326.6h91.6
			V290.3h37.5c35.6,0,45.3,6.8,57,31.2l39,79.9h105.8L300,319.6z M199.1,222.1h-98v-64.8h98c26.8,0,36.6,6.3,36.6,32.2
			C235.7,217.2,225.9,222.1,199.1,222.1z"/>
		<path d="M531,70c-113.6,0-180.8,66.3-180.8,168.1c0,62.1,25,110.9,70.2,139.6l25.3-27.2l7-7.5h140.3V399
			c77.7-19.8,120.7-78.8,120.7-160.9C713.8,136.3,647.5,70,531,70z M531,318.6c-66.3,0-83.3-15.6-83.3-80.4
			c0-64.8,17.1-80.4,83.3-80.4s85.3,15.6,85.3,80.4C616.3,303,597.3,318.6,531,318.6z"/>
		<path d="M976,74.9v126.2l4.4,71.2h-6.3l-47.8-75.1L835.6,74.9h-97.5v326.6h91.6V273.8l-3.9-62.4h6.3l41.4,64.3l96.5,125.7h97.5
			V74.9H976z"/>
	</g>
	<g>
		<path d="M300,319.6c-12.2-24.9-22.9-41-56.5-49.7V265c62.4-7.8,88.2-38.5,88.2-90.2c0-63.8-45.3-99.9-131.6-99.9H9.5v326.6h91.6
			V290.3h37.5c35.6,0,45.3,6.8,57,31.2l39,79.9h105.8L300,319.6z M199.1,222.1h-98v-64.8h98c26.8,0,36.6,6.3,36.6,32.2
			C235.7,217.2,225.9,222.1,199.1,222.1z"/>
		<path d="M531,70c-113.6,0-180.8,66.3-180.8,168.1c0,62.1,25,110.9,70.2,139.6l25.3-27.2l0,0c4.5-4.8,10.8-7.5,17.3-7.5h120
			c5.5,0,10,4.5,10,10V399c77.7-19.8,120.7-78.8,120.7-160.9C713.8,136.3,647.5,70,531,70z M531,318.6c-66.3,0-83.3-15.6-83.3-80.4
			c0-64.8,17.1-80.4,83.3-80.4s85.3,15.6,85.3,80.4C616.3,303,597.3,318.6,531,318.6z"/>
		<path d="M976,74.9v126.2l4.4,71.2h-6.3l-47.8-75.1L835.6,74.9h-97.5v326.6h91.6V273.8l-3.9-62.4h6.3l41.4,64.3l96.5,125.7h97.5
			V74.9H976z"/>
	</g>
	<g>
		<path d="M9.5,1004.8V659.7H318v87H106.4v51.5h204v86.5h-204v120H9.5z"/>
		<path d="M341.2,860.1V659.7H438v192.6c0,48.9,13.9,63.9,79.3,63.9c65.4,0,79.3-14.9,79.3-63.9V659.7h96.8v200.3
			c0,91.7-55.6,149.9-176.1,149.9C396.8,1010,341.2,951.8,341.2,860.1z"/>
		<path d="M722.3,1004.8V659.7h103L921.1,789l50.5,79.3h6.7l-4.6-75.2V659.7h96.8v345.1h-103l-102-132.9l-43.8-68H815l4.1,65.9
			v134.9H722.3z"/>
	</g>
	<g>
		<path d="M569.3,552V366.8H463.1l-20.9,22.5L271.5,572.5v61.9h206.2v59h91.6v-59h43.9V552H569.3z M477.7,552h-78.5v-6.3l72.1-74.1
			h6.3V552z"/>
	</g>
</g>
</svg>
